<svg width="200" height="63" viewBox="0 0 200 63" fill="none" xmlns="http://www.w3.org/2000/svg">
<g opacity="0.75">
<path d="M0 20.9426C0 27.5346 5.08781 32.6667 11.5029 32.6667C15.9713 32.6667 18.6701 30.8085 20.4397 29.0389C21.4573 27.9771 22.2094 26.7383 22.7845 25.3668H17.918C17.5198 25.9419 17.0331 26.4728 16.458 26.9152C15.4404 27.7558 13.8035 28.4637 11.5029 28.4637C8.18474 28.4637 5.35326 26.2516 4.64539 22.4911H23.0058V20.9426C23.0058 14.3506 17.9179 9.21851 11.5029 9.21851C5.08781 9.21851 0 14.3506 0 20.9426ZM4.8666 18.7305C5.57447 15.3681 8.40595 13.4215 11.5029 13.4215C15.5289 13.4215 17.6525 16.076 18.1392 18.7305H4.8666Z" fill="white"/>
<path d="M24.9777 9.66092L31.1716 32.2243H41.126L47.3199 9.66092H42.4533L37.5867 28.0213H34.7109L29.8443 9.66092H24.9777Z" fill="white"/>
<path d="M49.3057 20.9426C49.3057 27.5346 54.3935 32.6667 60.8085 32.6667C65.277 32.6667 67.9757 30.8085 69.7454 29.0389C70.763 27.9771 71.5151 26.7383 72.0902 25.3668H67.2236C66.8254 25.9419 66.3388 26.4728 65.7636 26.9152C64.7461 27.7558 63.1091 28.4637 60.8085 28.4637C57.4904 28.4637 54.6589 26.2516 53.9511 22.4911H72.3114V20.9426C72.3114 14.3506 67.2236 9.21851 60.8085 9.21851C54.3935 9.21851 49.3057 14.3506 49.3057 20.9426ZM54.1723 18.7305C54.8801 15.3681 57.7116 13.4215 60.8085 13.4215C64.8345 13.4215 66.9581 16.076 67.4448 18.7305H54.1723Z" fill="white"/>
<path d="M76.4955 32.2243H81.1409V20.0578C81.1409 16.2972 83.7954 13.8639 87.3347 13.8639H90.2105V9.43971H87.5559C85.2996 9.43971 83.7954 10.3246 82.7778 11.2094C82.2027 11.7403 81.716 12.3154 81.3621 12.9791H81.1409V9.66092H76.4955V32.2243Z" fill="white"/>
</g>
<path d="M100.882 1.85156H94.8006L89.4577 32.2581H95.539L96.1037 29.0002H96.4078L96.7553 29.6084C97.3634 30.7812 99.4484 32.9096 103.488 32.9096C109.396 32.9096 115.043 27.6102 115.043 19.357C115.043 13.4495 111.22 9.45319 106.225 9.45319C103.923 9.45319 102.185 10.3219 101.012 11.1473C100.317 11.6251 99.7091 12.1898 99.2312 12.7979H98.9706L100.882 1.85156ZM103.705 14.6657C106.833 14.6657 108.831 16.6639 108.831 19.9651C108.831 24.9171 105.921 27.6971 102.576 27.6971C99.4919 27.6971 97.4503 25.6989 97.4503 22.3977C97.4503 17.4458 100.361 14.6657 103.705 14.6657Z" fill="white"/>
<path d="M124.625 27.6971C121.454 27.6971 119.282 25.6121 119.282 22.1805C119.282 17.5326 122.279 14.6657 125.885 14.6657C129.056 14.6657 131.228 16.7507 131.228 20.1823C131.228 24.8302 128.23 27.6971 124.625 27.6971ZM124.321 32.9096C131.445 32.9096 137.396 27.1324 137.396 20.0955C137.396 14.0142 132.791 9.45319 126.189 9.45319C119.065 9.45319 113.114 15.2304 113.114 22.2674C113.114 28.3487 117.718 32.9096 124.321 32.9096Z" fill="white"/>
<path d="M151.207 32.2581H157.288L161.198 10.1048H155.116L154.552 13.406H154.248L153.9 12.7545C153.248 11.6251 151.207 9.45319 147.167 9.45319C141.26 9.45319 135.613 14.796 135.613 23.0492C135.613 29.0002 139.435 32.9096 144.431 32.9096C146.689 32.9096 148.47 32.0843 149.643 31.259C150.338 30.7812 150.946 30.2165 151.424 29.5649H151.685L151.207 32.2581ZM146.95 27.6971C143.822 27.6971 141.824 25.6989 141.824 22.3977C141.824 17.4458 144.735 14.6657 148.079 14.6657C151.163 14.6657 153.205 16.6639 153.205 19.9651C153.205 24.9171 150.295 27.6971 146.95 27.6971Z" fill="white"/>
<path d="M175.608 15.5345L176.65 9.67038H173.957C171.655 9.67038 170.178 10.4523 169.179 11.2776C168.614 11.7554 168.18 12.2766 167.832 12.8413H167.615L168.093 10.1048H162.012L158.102 32.2581H164.184L166.355 20.052C166.92 16.8811 169.135 15.5345 172.393 15.5345H175.608Z" fill="white"/>
<path d="M188.062 32.2581H194.143L199.486 1.85156H193.405L191.406 13.406H191.102L190.755 12.7545C190.103 11.6251 188.062 9.45319 184.022 9.45319C178.114 9.45319 172.467 14.796 172.467 23.0492C172.467 29.0002 176.29 32.9096 181.285 32.9096C183.544 32.9096 185.325 32.0843 186.498 31.259C187.193 30.7812 187.801 30.2165 188.279 29.5649H188.54L188.062 32.2581ZM183.805 27.6971C180.677 27.6971 178.679 25.6989 178.679 22.3977C178.679 17.4458 181.589 14.6657 184.934 14.6657C188.018 14.6657 190.06 16.6639 190.06 19.9651C190.06 24.9171 187.149 27.6971 183.805 27.6971Z" fill="white"/>
<path d="M17.1618 48.1244C18.0858 48.1244 18.9138 48.3284 19.6458 48.7364C20.3778 49.1444 20.9478 49.7144 21.3558 50.4464C21.7758 51.1784 21.9858 52.0244 21.9858 52.9844C21.9858 53.9444 21.7758 54.7964 21.3558 55.5404C20.9478 56.2724 20.3778 56.8424 19.6458 57.2504C18.9138 57.6584 18.0858 57.8624 17.1618 57.8624C16.4778 57.8624 15.8478 57.7304 15.2718 57.4664C14.7078 57.2024 14.2278 56.8184 13.8318 56.3144V61.2464H12.1038V48.2144H13.7598V49.7264C14.1438 49.1984 14.6298 48.8024 15.2178 48.5384C15.8058 48.2624 16.4538 48.1244 17.1618 48.1244ZM17.0178 56.3504C17.6298 56.3504 18.1758 56.2124 18.6558 55.9364C19.1478 55.6484 19.5318 55.2524 19.8078 54.7484C20.0958 54.2324 20.2398 53.6444 20.2398 52.9844C20.2398 52.3244 20.0958 51.7424 19.8078 51.2384C19.5318 50.7224 19.1478 50.3264 18.6558 50.0504C18.1758 49.7744 17.6298 49.6364 17.0178 49.6364C16.4178 49.6364 15.8718 49.7804 15.3798 50.0684C14.8998 50.3444 14.5158 50.7344 14.2278 51.2384C13.9518 51.7424 13.8138 52.3244 13.8138 52.9844C13.8138 53.6444 13.9518 54.2324 14.2278 54.7484C14.5038 55.2524 14.8878 55.6484 15.3798 55.9364C15.8718 56.2124 16.4178 56.3504 17.0178 56.3504ZM26.0294 49.8164C26.3294 49.2644 26.7734 48.8444 27.3614 48.5564C27.9494 48.2684 28.6634 48.1244 29.5034 48.1244V49.7984C29.4074 49.7864 29.2754 49.7804 29.1074 49.7804C28.1714 49.7804 27.4334 50.0624 26.8934 50.6264C26.3654 51.1784 26.1014 51.9704 26.1014 53.0024V57.7544H24.3734V48.2144H26.0294V49.8164ZM35.6312 57.8624C34.6832 57.8624 33.8312 57.6524 33.0752 57.2324C32.3192 56.8124 31.7252 56.2364 31.2932 55.5044C30.8732 54.7604 30.6632 53.9204 30.6632 52.9844C30.6632 52.0484 30.8732 51.2144 31.2932 50.4824C31.7252 49.7384 32.3192 49.1624 33.0752 48.7544C33.8312 48.3344 34.6832 48.1244 35.6312 48.1244C36.5792 48.1244 37.4252 48.3344 38.1692 48.7544C38.9252 49.1624 39.5132 49.7384 39.9332 50.4824C40.3652 51.2144 40.5812 52.0484 40.5812 52.9844C40.5812 53.9204 40.3652 54.7604 39.9332 55.5044C39.5132 56.2364 38.9252 56.8124 38.1692 57.2324C37.4252 57.6524 36.5792 57.8624 35.6312 57.8624ZM35.6312 56.3504C36.2432 56.3504 36.7892 56.2124 37.2692 55.9364C37.7612 55.6484 38.1452 55.2524 38.4212 54.7484C38.6972 54.2324 38.8352 53.6444 38.8352 52.9844C38.8352 52.3244 38.6972 51.7424 38.4212 51.2384C38.1452 50.7224 37.7612 50.3264 37.2692 50.0504C36.7892 49.7744 36.2432 49.6364 35.6312 49.6364C35.0192 49.6364 34.4672 49.7744 33.9752 50.0504C33.4952 50.3264 33.1112 50.7224 32.8232 51.2384C32.5472 51.7424 32.4092 52.3244 32.4092 52.9844C32.4092 53.6444 32.5472 54.2324 32.8232 54.7484C33.1112 55.2524 33.4952 55.6484 33.9752 55.9364C34.4672 56.2124 35.0192 56.3504 35.6312 56.3504ZM41.747 61.3544C41.327 61.3544 40.937 61.3064 40.577 61.2104C40.217 61.1144 39.917 60.9704 39.677 60.7784L40.235 59.4464C40.595 59.7464 41.063 59.8964 41.639 59.8964C42.095 59.8964 42.443 59.7524 42.683 59.4644C42.935 59.1884 43.061 58.7744 43.061 58.2224V48.2144H44.789V58.1864C44.789 59.1704 44.525 59.9444 43.997 60.5084C43.469 61.0724 42.719 61.3544 41.747 61.3544ZM43.925 46.3784C43.589 46.3784 43.307 46.2704 43.079 46.0544C42.863 45.8384 42.755 45.5744 42.755 45.2624C42.755 44.9504 42.863 44.6864 43.079 44.4704C43.307 44.2424 43.589 44.1284 43.925 44.1284C44.261 44.1284 44.537 44.2364 44.753 44.4524C44.981 44.6564 45.095 44.9144 45.095 45.2264C45.095 45.5504 44.981 45.8264 44.753 46.0544C44.537 46.2704 44.261 46.3784 43.925 46.3784ZM56.7082 53.0384C56.7082 53.1704 56.6962 53.3444 56.6722 53.5604H48.9322C49.0402 54.4004 49.4062 55.0784 50.0302 55.5944C50.6662 56.0984 51.4522 56.3504 52.3882 56.3504C53.5282 56.3504 54.4462 55.9664 55.1422 55.1984L56.0962 56.3144C55.6642 56.8184 55.1242 57.2024 54.4762 57.4664C53.8402 57.7304 53.1262 57.8624 52.3342 57.8624C51.3262 57.8624 50.4322 57.6584 49.6522 57.2504C48.8722 56.8304 48.2662 56.2484 47.8342 55.5044C47.4142 54.7604 47.2042 53.9204 47.2042 52.9844C47.2042 52.0604 47.4082 51.2264 47.8162 50.4824C48.2362 49.7384 48.8062 49.1624 49.5262 48.7544C50.2582 48.3344 51.0802 48.1244 51.9922 48.1244C52.9042 48.1244 53.7142 48.3344 54.4222 48.7544C55.1422 49.1624 55.7002 49.7384 56.0962 50.4824C56.5042 51.2264 56.7082 52.0784 56.7082 53.0384ZM51.9922 49.5824C51.1642 49.5824 50.4682 49.8344 49.9042 50.3384C49.3522 50.8424 49.0282 51.5024 48.9322 52.3184H55.0522C54.9562 51.5144 54.6262 50.8604 54.0622 50.3564C53.5102 49.8404 52.8202 49.5824 51.9922 49.5824ZM63.2657 57.8624C62.2937 57.8624 61.4237 57.6524 60.6557 57.2324C59.8997 56.8124 59.3057 56.2364 58.8737 55.5044C58.4417 54.7604 58.2257 53.9204 58.2257 52.9844C58.2257 52.0484 58.4417 51.2144 58.8737 50.4824C59.3057 49.7384 59.8997 49.1624 60.6557 48.7544C61.4237 48.3344 62.2937 48.1244 63.2657 48.1244C64.1297 48.1244 64.8977 48.2984 65.5697 48.6464C66.2537 48.9944 66.7817 49.4984 67.1537 50.1584L65.8397 51.0044C65.5397 50.5484 65.1677 50.2064 64.7237 49.9784C64.2797 49.7504 63.7877 49.6364 63.2477 49.6364C62.6237 49.6364 62.0597 49.7744 61.5557 50.0504C61.0637 50.3264 60.6737 50.7224 60.3857 51.2384C60.1097 51.7424 59.9717 52.3244 59.9717 52.9844C59.9717 53.6564 60.1097 54.2504 60.3857 54.7664C60.6737 55.2704 61.0637 55.6604 61.5557 55.9364C62.0597 56.2124 62.6237 56.3504 63.2477 56.3504C63.7877 56.3504 64.2797 56.2364 64.7237 56.0084C65.1677 55.7804 65.5397 55.4384 65.8397 54.9824L67.1537 55.8104C66.7817 56.4704 66.2537 56.9804 65.5697 57.3404C64.8977 57.6884 64.1297 57.8624 63.2657 57.8624ZM74.878 57.1964C74.626 57.4124 74.314 57.5804 73.942 57.7004C73.57 57.8084 73.186 57.8624 72.79 57.8624C71.83 57.8624 71.086 57.6044 70.558 57.0884C70.03 56.5724 69.766 55.8344 69.766 54.8744V49.6364H68.146V48.2144H69.766V46.1264H71.494V48.2144H74.23V49.6364H71.494V54.8024C71.494 55.3184 71.62 55.7144 71.872 55.9904C72.136 56.2664 72.508 56.4044 72.988 56.4044C73.516 56.4044 73.966 56.2544 74.338 55.9544L74.878 57.1964ZM84.5371 57.8624C83.7571 57.8624 83.0071 57.7604 82.2871 57.5564C81.5671 57.3404 81.0031 57.0704 80.5951 56.7464L81.3151 55.3784C81.7351 55.6784 82.2451 55.9184 82.8451 56.0984C83.4451 56.2784 84.0511 56.3684 84.6631 56.3684C86.1751 56.3684 86.9311 55.9364 86.9311 55.0724C86.9311 54.7844 86.8291 54.5564 86.6251 54.3884C86.4211 54.2204 86.1631 54.1004 85.8511 54.0284C85.5511 53.9444 85.1191 53.8544 84.5551 53.7584C83.7871 53.6384 83.1571 53.5004 82.6651 53.3444C82.1851 53.1884 81.7711 52.9244 81.4231 52.5524C81.0751 52.1804 80.9011 51.6584 80.9011 50.9864C80.9011 50.1224 81.2611 49.4324 81.9811 48.9164C82.7011 48.3884 83.6671 48.1244 84.8791 48.1244C85.5151 48.1244 86.1511 48.2024 86.7871 48.3584C87.4231 48.5144 87.9451 48.7244 88.3531 48.9884L87.6151 50.3564C86.8351 49.8524 85.9171 49.6004 84.8611 49.6004C84.1291 49.6004 83.5711 49.7204 83.1871 49.9604C82.8031 50.2004 82.6111 50.5184 82.6111 50.9144C82.6111 51.2264 82.7191 51.4724 82.9351 51.6524C83.1511 51.8324 83.4151 51.9644 83.7271 52.0484C84.0511 52.1324 84.5011 52.2284 85.0771 52.3364C85.8451 52.4684 86.4631 52.6124 86.9311 52.7684C87.4111 52.9124 87.8191 53.1644 88.1551 53.5244C88.4911 53.8844 88.6591 54.3884 88.6591 55.0364C88.6591 55.9004 88.2871 56.5904 87.5431 57.1064C86.8111 57.6104 85.8091 57.8624 84.5371 57.8624ZM99.7107 48.2144V57.7544H98.0727V56.3144C97.7247 56.8064 97.2627 57.1904 96.6867 57.4664C96.1227 57.7304 95.5047 57.8624 94.8327 57.8624C93.5607 57.8624 92.5587 57.5144 91.8267 56.8184C91.0947 56.1104 90.7287 55.0724 90.7287 53.7044V48.2144H92.4567V53.5064C92.4567 54.4304 92.6787 55.1324 93.1227 55.6124C93.5667 56.0804 94.2027 56.3144 95.0307 56.3144C95.9427 56.3144 96.6627 56.0384 97.1907 55.4864C97.7187 54.9344 97.9827 54.1544 97.9827 53.1464V48.2144H99.7107ZM108.058 48.1244C108.982 48.1244 109.81 48.3284 110.542 48.7364C111.274 49.1444 111.844 49.7144 112.252 50.4464C112.672 51.1784 112.882 52.0244 112.882 52.9844C112.882 53.9444 112.672 54.7964 112.252 55.5404C111.844 56.2724 111.274 56.8424 110.542 57.2504C109.81 57.6584 108.982 57.8624 108.058 57.8624C107.35 57.8624 106.702 57.7244 106.114 57.4484C105.526 57.1724 105.04 56.7704 104.656 56.2424V57.7544H103V44.3984H104.728V49.6544C105.112 49.1504 105.592 48.7724 106.168 48.5204C106.744 48.2564 107.374 48.1244 108.058 48.1244ZM107.914 56.3504C108.526 56.3504 109.072 56.2124 109.552 55.9364C110.044 55.6484 110.428 55.2524 110.704 54.7484C110.992 54.2324 111.136 53.6444 111.136 52.9844C111.136 52.3244 110.992 51.7424 110.704 51.2384C110.428 50.7224 110.044 50.3264 109.552 50.0504C109.072 49.7744 108.526 49.6364 107.914 49.6364C107.314 49.6364 106.768 49.7744 106.276 50.0504C105.784 50.3264 105.4 50.7224 105.124 51.2384C104.848 51.7424 104.71 52.3244 104.71 52.9844C104.71 53.6444 104.848 54.2324 105.124 54.7484C105.4 55.2524 105.784 55.6484 106.276 55.9364C106.768 56.2124 107.314 56.3504 107.914 56.3504ZM120.364 48.1244C121.576 48.1244 122.536 48.4784 123.244 49.1864C123.964 49.8824 124.324 50.9084 124.324 52.2644V57.7544H122.596V52.4624C122.596 51.5384 122.374 50.8424 121.93 50.3744C121.486 49.9064 120.85 49.6724 120.022 49.6724C119.086 49.6724 118.348 49.9484 117.808 50.5004C117.268 51.0404 116.998 51.8204 116.998 52.8404V57.7544H115.27V44.3984H116.998V49.5644C117.358 49.1084 117.826 48.7544 118.402 48.5024C118.99 48.2504 119.644 48.1244 120.364 48.1244ZM136.197 53.0384C136.197 53.1704 136.185 53.3444 136.161 53.5604H128.421C128.529 54.4004 128.895 55.0784 129.519 55.5944C130.155 56.0984 130.941 56.3504 131.877 56.3504C133.017 56.3504 133.935 55.9664 134.631 55.1984L135.585 56.3144C135.153 56.8184 134.613 57.2024 133.965 57.4664C133.329 57.7304 132.615 57.8624 131.823 57.8624C130.815 57.8624 129.921 57.6584 129.141 57.2504C128.361 56.8304 127.755 56.2484 127.323 55.5044C126.903 54.7604 126.693 53.9204 126.693 52.9844C126.693 52.0604 126.897 51.2264 127.305 50.4824C127.725 49.7384 128.295 49.1624 129.015 48.7544C129.747 48.3344 130.569 48.1244 131.481 48.1244C132.393 48.1244 133.203 48.3344 133.911 48.7544C134.631 49.1624 135.189 49.7384 135.585 50.4824C135.993 51.2264 136.197 52.0784 136.197 53.0384ZM131.481 49.5824C130.653 49.5824 129.957 49.8344 129.393 50.3384C128.841 50.8424 128.517 51.5024 128.421 52.3184H134.541C134.445 51.5144 134.115 50.8604 133.551 50.3564C132.999 49.8404 132.309 49.5824 131.481 49.5824ZM141.806 48.1244C143.126 48.1244 144.134 48.4484 144.83 49.0964C145.538 49.7444 145.892 50.7104 145.892 51.9944V57.7544H144.254V56.4944C143.966 56.9384 143.552 57.2804 143.012 57.5204C142.484 57.7484 141.854 57.8624 141.122 57.8624C140.054 57.8624 139.196 57.6044 138.548 57.0884C137.912 56.5724 137.594 55.8944 137.594 55.0544C137.594 54.2144 137.9 53.5424 138.512 53.0384C139.124 52.5224 140.096 52.2644 141.428 52.2644H144.164V51.9224C144.164 51.1784 143.948 50.6084 143.516 50.2124C143.084 49.8164 142.448 49.6184 141.608 49.6184C141.044 49.6184 140.492 49.7144 139.952 49.9064C139.412 50.0864 138.956 50.3324 138.584 50.6444L137.864 49.3484C138.356 48.9524 138.944 48.6524 139.628 48.4484C140.312 48.2324 141.038 48.1244 141.806 48.1244ZM141.41 56.5304C142.07 56.5304 142.64 56.3864 143.12 56.0984C143.6 55.7984 143.948 55.3784 144.164 54.8384V53.5064H141.5C140.036 53.5064 139.304 53.9984 139.304 54.9824C139.304 55.4624 139.49 55.8404 139.862 56.1164C140.234 56.3924 140.75 56.5304 141.41 56.5304ZM158.143 44.3984V57.7544H156.487V56.2424C156.103 56.7704 155.617 57.1724 155.029 57.4484C154.441 57.7244 153.793 57.8624 153.085 57.8624C152.161 57.8624 151.333 57.6584 150.601 57.2504C149.869 56.8424 149.293 56.2724 148.873 55.5404C148.465 54.7964 148.261 53.9444 148.261 52.9844C148.261 52.0244 148.465 51.1784 148.873 50.4464C149.293 49.7144 149.869 49.1444 150.601 48.7364C151.333 48.3284 152.161 48.1244 153.085 48.1244C153.769 48.1244 154.399 48.2564 154.975 48.5204C155.551 48.7724 156.031 49.1504 156.415 49.6544V44.3984H158.143ZM153.229 56.3504C153.829 56.3504 154.375 56.2124 154.867 55.9364C155.359 55.6484 155.743 55.2524 156.019 54.7484C156.295 54.2324 156.433 53.6444 156.433 52.9844C156.433 52.3244 156.295 51.7424 156.019 51.2384C155.743 50.7224 155.359 50.3264 154.867 50.0504C154.375 49.7744 153.829 49.6364 153.229 49.6364C152.617 49.6364 152.065 49.7744 151.573 50.0504C151.093 50.3264 150.709 50.7224 150.421 51.2384C150.145 51.7424 150.007 52.3244 150.007 52.9844C150.007 53.6444 150.145 54.2324 150.421 54.7484C150.709 55.2524 151.093 55.6484 151.573 55.9364C152.065 56.2124 152.617 56.3504 153.229 56.3504ZM161.412 48.2144H163.14V57.7544H161.412V48.2144ZM162.276 46.3784C161.94 46.3784 161.658 46.2704 161.43 46.0544C161.214 45.8384 161.106 45.5744 161.106 45.2624C161.106 44.9504 161.214 44.6864 161.43 44.4704C161.658 44.2424 161.94 44.1284 162.276 44.1284C162.612 44.1284 162.888 44.2364 163.104 44.4524C163.332 44.6564 163.446 44.9144 163.446 45.2264C163.446 45.5504 163.332 45.8264 163.104 46.0544C162.888 46.2704 162.612 46.3784 162.276 46.3784ZM171.534 48.1244C172.746 48.1244 173.706 48.4784 174.414 49.1864C175.134 49.8824 175.494 50.9084 175.494 52.2644V57.7544H173.766V52.4624C173.766 51.5384 173.544 50.8424 173.1 50.3744C172.656 49.9064 172.02 49.6724 171.192 49.6724C170.256 49.6724 169.518 49.9484 168.978 50.5004C168.438 51.0404 168.168 51.8204 168.168 52.8404V57.7544H166.44V48.2144H168.096V49.6544C168.444 49.1624 168.912 48.7844 169.5 48.5204C170.1 48.2564 170.778 48.1244 171.534 48.1244ZM187.87 48.2144V56.4584C187.87 58.1264 187.456 59.3564 186.628 60.1484C185.8 60.9524 184.564 61.3544 182.92 61.3544C182.02 61.3544 181.162 61.2284 180.346 60.9764C179.53 60.7364 178.87 60.3884 178.366 59.9324L179.194 58.6004C179.638 58.9844 180.184 59.2844 180.832 59.5004C181.492 59.7284 182.17 59.8424 182.866 59.8424C183.982 59.8424 184.804 59.5784 185.332 59.0504C185.872 58.5224 186.142 57.7184 186.142 56.6384V55.8824C185.734 56.3744 185.23 56.7464 184.63 56.9984C184.042 57.2384 183.4 57.3584 182.704 57.3584C181.792 57.3584 180.964 57.1664 180.22 56.7824C179.488 56.3864 178.912 55.8404 178.492 55.1444C178.072 54.4364 177.862 53.6324 177.862 52.7324C177.862 51.8324 178.072 51.0344 178.492 50.3384C178.912 49.6304 179.488 49.0844 180.22 48.7004C180.964 48.3164 181.792 48.1244 182.704 48.1244C183.424 48.1244 184.09 48.2564 184.702 48.5204C185.326 48.7844 185.836 49.1744 186.232 49.6904V48.2144H187.87ZM182.902 55.8464C183.526 55.8464 184.084 55.7144 184.576 55.4504C185.08 55.1864 185.47 54.8204 185.746 54.3524C186.034 53.8724 186.178 53.3324 186.178 52.7324C186.178 51.8084 185.872 51.0644 185.26 50.5004C184.648 49.9244 183.862 49.6364 182.902 49.6364C181.93 49.6364 181.138 49.9244 180.526 50.5004C179.914 51.0644 179.608 51.8084 179.608 52.7324C179.608 53.3324 179.746 53.8724 180.022 54.3524C180.31 54.8204 180.7 55.1864 181.192 55.4504C181.696 55.7144 182.266 55.8464 182.902 55.8464Z" fill="white"/>
</svg>
