<svg width="24" height="25" viewBox="0 0 24 25" fill="#6347F5" xmlns="http://www.w3.org/2000/svg">
<path fill-rule="evenodd" clip-rule="evenodd" d="M7 6.75439C7 6.20211 7.44772 5.75439 8 5.75439H21C21.5523 5.75439 22 6.20211 22 6.75439C22 7.30668 21.5523 7.75439 21 7.75439H8C7.44772 7.75439 7 7.30668 7 6.75439Z" />
<path fill-rule="evenodd" clip-rule="evenodd" d="M7 12.7544C7 12.2021 7.44772 11.7544 8 11.7544H21C21.5523 11.7544 22 12.2021 22 12.7544C22 13.3067 21.5523 13.7544 21 13.7544H8C7.44772 13.7544 7 13.3067 7 12.7544Z" />
<path fill-rule="evenodd" clip-rule="evenodd" d="M7 18.7544C7 18.2021 7.44772 17.7544 8 17.7544H21C21.5523 17.7544 22 18.2021 22 18.7544C22 19.3067 21.5523 19.7544 21 19.7544H8C7.44772 19.7544 7 19.3067 7 18.7544Z" />
<path fill-rule="evenodd" clip-rule="evenodd" d="M5 6.75439C5 6.20211 4.55228 5.75439 4 5.75439H3C2.44772 5.75439 2 6.20211 2 6.75439C2 7.30668 2.44772 7.75439 3 7.75439H4C4.55228 7.75439 5 7.30668 5 6.75439Z" />
<path fill-rule="evenodd" clip-rule="evenodd" d="M5 12.7544C5 12.2021 4.55228 11.7544 4 11.7544H3C2.44772 11.7544 2 12.2021 2 12.7544C2 13.3067 2.44772 13.7544 3 13.7544H4C4.55228 13.7544 5 13.3067 5 12.7544Z" />
<path fill-rule="evenodd" clip-rule="evenodd" d="M5 18.7544C5 18.2021 4.55228 17.7544 4 17.7544H3C2.44772 17.7544 2 18.2021 2 18.7544C2 19.3067 2.44772 19.7544 3 19.7544H4C4.55228 19.7544 5 19.3067 5 18.7544Z" />
</svg>
