<svg width="24" height="25" viewBox="0 0 24 25" fill="" xmlns="http://www.w3.org/2000/svg">
<path fill-rule="evenodd" clip-rule="evenodd" d="M2 11.2544C2 6.55997 5.80558 2.75439 10.5 2.75439C15.1944 2.75439 19 6.55997 19 11.2544C19 15.9488 15.1944 19.7544 10.5 19.7544C5.80558 19.7544 2 15.9488 2 11.2544ZM10.5 4.75439C6.91015 4.75439 4 7.66454 4 11.2544C4 14.8442 6.91015 17.7544 10.5 17.7544C14.0899 17.7544 17 14.8442 17 11.2544C17 7.66454 14.0899 4.75439 10.5 4.75439Z" fill="white"/>
<path fill-rule="evenodd" clip-rule="evenodd" d="M15.0929 15.8473C15.4834 15.4568 16.1166 15.4568 16.5071 15.8473L21.7071 21.0473C22.0976 21.4379 22.0976 22.071 21.7071 22.4615C21.3166 22.8521 20.6834 22.8521 20.2929 22.4615L15.0929 17.2616C14.7024 16.871 14.7024 16.2379 15.0929 15.8473Z" fill="white"/>
</svg>
