<svg width="21" height="20" viewBox="0 0 21 20" fill="none" xmlns="http://www.w3.org/2000/svg">
<path fill-rule="evenodd" clip-rule="evenodd" d="M0.599976 15.8333C0.599976 13.5322 2.46546 11.6667 4.76664 11.6667H11.4333C13.7345 11.6667 15.6 13.5322 15.6 15.8333V17.5C15.6 17.9602 15.2269 18.3333 14.7666 18.3333C14.3064 18.3333 13.9333 17.9602 13.9333 17.5V15.8333C13.9333 14.4526 12.814 13.3333 11.4333 13.3333H4.76664C3.38593 13.3333 2.26664 14.4526 2.26664 15.8333V17.5C2.26664 17.9602 1.89355 18.3333 1.43331 18.3333C0.973072 18.3333 0.599976 17.9602 0.599976 17.5V15.8333Z" fill="#6347F5"/>
<path fill-rule="evenodd" clip-rule="evenodd" d="M3.93335 5.83334C3.93335 3.53215 5.79883 1.66667 8.10002 1.66667C10.4012 1.66667 12.2667 3.53215 12.2667 5.83334C12.2667 8.13452 10.4012 10 8.10002 10C5.79883 10 3.93335 8.13452 3.93335 5.83334ZM8.10002 3.33334C6.7193 3.33334 5.60002 4.45263 5.60002 5.83334C5.60002 7.21405 6.7193 8.33334 8.10002 8.33334C9.48073 8.33334 10.6 7.21405 10.6 5.83334C10.6 4.45263 9.48073 3.33334 8.10002 3.33334Z" fill="#6347F5"/>
<path fill-rule="evenodd" clip-rule="evenodd" d="M16.4598 12.4C16.5748 11.9544 17.0294 11.6864 17.475 11.8015C19.3135 12.2762 20.5986 13.9339 20.6 15.8327L20.6 17.5C20.6 17.9602 20.2269 18.3333 19.7666 18.3333C19.3064 18.3333 18.9333 17.9602 18.9333 17.5L18.9333 15.834C18.9333 15.8339 18.9333 15.834 18.9333 15.834C18.9323 14.6948 18.1614 13.7 17.0583 13.4152C16.6127 13.3001 16.3447 12.8456 16.4598 12.4Z" fill="#6347F5"/>
<path fill-rule="evenodd" clip-rule="evenodd" d="M13.126 2.40163C13.2401 1.95578 13.6941 1.68688 14.14 1.80104C15.9836 2.27309 17.2731 3.93436 17.2731 5.8375C17.2731 7.74063 15.9836 9.4019 14.14 9.87395C13.6941 9.98811 13.2401 9.71922 13.126 9.27336C13.0118 8.82751 13.2807 8.37353 13.7266 8.25937C14.8328 7.97614 15.6065 6.97938 15.6065 5.8375C15.6065 4.69562 14.8328 3.69885 13.7266 3.41562C13.2807 3.30146 13.0118 2.84748 13.126 2.40163Z" fill="#6347F5"/>
</svg>
